<svg xmlns="http://www.w3.org/2000/svg" viewBox="0 0 1474.51 375.33"><defs><style>.cls-1{fill:#fff;}.cls-2{fill:#88868b;}</style></defs><g id="Capa_2" data-name="Capa 2"><g id="Capa_1-2" data-name="Capa 1"><path class="cls-1" d="M104.75,372.53v-5.1c14.71-1.46,15.43-2.67,15.19-21.39l-.61-71.33h-.73L74.13,371.44H70.48l-40.95-94.3H29l-2.67,49.94c-.73,14.71-.73,22.24-.37,29.29.37,8.39,4.62,9.6,16.65,10.82v5.34H0v-5.34c10.45-1,14-3.53,15.43-10.58,1-6.19,2.07-13.85,3.53-32.93L21.63,288c1.58-23.09.49-24.07-15.8-25.65V257h31L78,344.34,119.82,257h31.84v5.34c-15.92,1.34-17,1.95-16.41,19.57L137,346c.61,18.72,1.1,19.93,16.9,21.39v5.1Z"/><path class="cls-1" d="M291.66,262.31c-10.57.61-15.19,3.29-15.92,10.58-.49,5-1.09,12.15-1.09,28.19v14c0,21-3.41,36.46-14,47.4-8.5,8.63-20.9,12.51-33.42,12.51-11.18,0-21.75-2.43-29.89-8.62-11.18-8.27-16.53-21.76-16.53-43.14V280.79c0-16.41-1.58-17.26-15.92-18.48V257h48.73v5.34c-14.22.85-15.79,1.95-15.79,18.48v38.76c0,29.29,12.27,45.33,34.39,45.33,25.76,0,34.63-20.66,34.63-50.19V301.08c0-16-.49-23.09-1.46-28.68-1-6.8-5.1-9.24-17.62-10.09V257h43.87Z"/><path class="cls-1" d="M380.74,284.55c-1.58-7.05-2.79-10.93-5.47-14.46-3.16-5-7-6.56-20.53-6.56H341.49c-5.71,0-6.2.49-6.2,5.83v41.56h18.23c16.65,0,17.62-1.7,19.93-13.24h5.35v35h-5.47c-2.19-12.39-3.16-14.33-19.81-14.33H335.29v31c0,15.8,1.58,16.89,18.23,18.11v5.1H302.36v-5.1c14.46-1.09,16-2.31,16-18.11V279.93c0-15.67-1.58-16.64-15.55-17.62V257h81.42c.24,6.56,1.09,17.86,1.94,26.73Z"/><path class="cls-1" d="M478.33,284.55c-1.58-7.05-2.8-10.93-5.47-14.46-3.16-5-7.05-6.56-20.54-6.56H439.08c-5.71,0-6.2.49-6.2,5.83v41.56h18.23c16.65,0,17.62-1.7,19.93-13.24h5.34v35h-5.46c-2.19-12.39-3.16-14.33-19.81-14.33H432.88v31c0,15.8,1.58,16.89,18.23,18.11v5.1H400v-5.1c14.46-1.09,16-2.31,16-18.11V279.93c0-15.67-1.58-16.64-15.56-17.62V257h81.42c.25,6.56,1.1,17.86,1.95,26.73Z"/><path class="cls-1" d="M643.49,285.65c-2-8.88-3.89-13.61-6.2-16.65-3-4.13-6.2-5.47-20-5.47h-12.4v86.64c0,14.1,1.58,16.17,18.84,17.26v5.1H569.84v-5.1c16.65-1.09,18.23-3,18.23-17.26V263.53H577.5c-15.8,0-19.57,1.7-22,5.47-2.3,3-3.88,8.26-6.19,16.65h-5.47c.85-11.55,1.7-23.34,2.06-33.18h3.89c2.68,4.5,5,4.5,10.33,4.5h73.64c5,0,6.69-1.1,9.48-4.5h3.89c0,8.14,1,21.88,1.82,32.57Z"/><path class="cls-1" d="M769,374.11a58.05,58.05,0,0,1-6.44-.36c-14.7-.73-22.24-4.62-30.62-16.28-6.2-8.63-12.15-19.45-17.62-28-3.28-5.11-6.44-7.3-15.8-7.3h-5.1v27.71c0,14.95,1.7,16.28,16.28,17.5v5.1H660.5v-5.1c14.71-1.22,16.41-2.55,16.41-17.5V279.45c0-15.19-1.58-16.16-15.68-17.14V257h46.55c13.73,0,22.6,1.58,29.53,6.19,7.41,4.62,12,12.52,12,23.34,0,15.43-10,24.67-23,30.13,3.16,5.84,10.57,17.5,16,25.64,6.56,9.36,10.45,14.34,14.7,18.72,4.62,5.22,8.63,7.17,12.76,8.14Zm-67.44-57.84c9.11,0,15.19-1.46,19.81-5.1,6.92-5.35,9.72-12.28,9.72-21.88,0-19.08-12.52-26.13-26-26.13-5.47,0-8.38.73-9.72,1.71s-1.94,3-1.94,7.65v43.75Z"/><path class="cls-1" d="M847.9,372.53v-5.1c11.3-1.58,12.88-3.16,10.45-10.33s-5.84-15.92-9.72-26.13h-39c-3,8.15-5.47,15.07-7.78,22.12-3.89,10.82-2.43,12.88,11.3,14.34v5.1H773v-5.1c11.79-1.82,14.34-3,20.78-18.84L832,255.87l6.32-1.58c11.66,31.48,23.33,63.07,35.36,94.3,5.83,15.68,8.38,17.62,20.17,18.84v5.1ZM830,278.72h-.36c-5.84,14.7-11.55,29.89-17,44.23H846Z"/><path class="cls-1" d="M958.61,257c23.21,0,40.95,4.74,52.25,15.19,9,8.63,15.56,21.63,15.56,38.28,0,21-8.63,36.94-22.85,47.39-14,10.09-32.56,14.7-55.05,14.7h-45.2v-5.1c15.55-1.09,17.13-2.19,17.13-17.38V279.57c0-15.31-1.58-16-15.55-17.13V257Zm-21.14,91.5c0,14.1,6.19,17.38,19.56,17.38,33.9,0,50.19-24.67,50.19-52.62,0-18.35-7.17-33.42-20.54-41.8-8.38-5.59-19.32-8.27-32.32-8.27-8.15,0-12.64,1.22-14.59,2.44-1.7,1.21-2.3,3.4-2.3,10.32Z"/><path class="cls-1" d="M1039.92,372.53v-5.1c14.82-1.09,16.4-2.19,16.4-17.5V279.81c0-15.43-1.58-16.52-16.4-17.5V257h49.58v5.34c-14.71,1-16.29,2.07-16.29,17.5v70.12c0,15.31,1.58,16.41,16.29,17.5v5.1Z"/><path class="cls-1" d="M1230,262.31c-10.09.49-14.46,2.56-15.31,10.7-.61,5.71-1.1,13.73-1.1,30.26v71.09h-5.83l-79.84-92.6h-.24l-.12,43.38a290,290,0,0,0,1.21,29.89c.85,9.24,5,11.43,17.5,12.4v5.1h-43.5v-5.1c10.45-.73,15.06-3,15.92-11.91.72-5.59,1.45-14,1.45-30.38V287c0-13-.6-14-3.89-18.22-3.76-4.38-7.65-5.84-16.16-6.45V257h28l77.41,87.74h.49V303.27a280.74,280.74,0,0,0-1.22-29.65c-.85-8.39-5.1-10.7-18.11-11.31V257H1230Z"/><path class="cls-1" d="M1362.32,323.8c-10.81,1.71-11.42,2.56-11.42,13.37V352c0,6.19.12,11.91,1.22,16.4-11.55,2.68-27.1,6.93-42.29,6.93-41.32,0-69-24.43-69-59.79,0-40.83,34.51-61.25,71.46-61.25,15.79,0,30.5,4,36.7,5.35.48,6.2,1.33,16,2.79,28.68l-5.35,1.21c-4.37-22.11-18.71-28.67-36.94-28.67-27.83,0-48.49,19.93-48.49,52.37,0,25.64,15.56,55.54,51.16,55.54,6,0,11.79-1.22,15.68-3.16s6.08-4.62,6.08-11.43V339.6c0-13.12-1.1-14.34-19.57-15.8v-5.1h48Z"/><polygon class="cls-1" points="1345.83 226.47 1053.09 226.47 1206.42 153.37 1287.32 115.2 1345.83 226.47"/><polygon class="cls-2" points="1275.74 109.65 1055.61 221.19 1176.79 113.24 1196.08 95.33 1275.74 109.65"/><polygon class="cls-1" points="1296.96 109.65 1474.51 0 1417.45 115.2 1359.55 226.47 1296.96 109.65"/><polygon class="cls-2" points="1204.94 89.66 1468.83 0 1345.89 70.21 1284.05 103.62 1204.94 89.66"/></g></g></svg>